<?xml version="1.0" encoding="UTF-8"?>
<svg width="110px" height="16px" viewBox="0 0 110 16" version="1.1" xmlns="http://www.w3.org/2000/svg" xmlns:xlink="http://www.w3.org/1999/xlink">
    <title>2E45CAA4-CD34-4E79-ACC2-4F8A0ACA3424</title>
    <g id="Symbols" stroke="none" stroke-width="1" fill="none" fill-rule="evenodd">
        <g id="Stars" fill="#000000">
            <path d="M8.55950865,0 L11.2045423,5.06167777 L17.1190173,5.87335555 L12.839263,9.81332223 L13.8495759,15.3766445 L8.55950865,12.75 L3.26944138,15.3766445 L4.27975432,9.81332223 L0,5.87335555 L5.91447501,5.06167777 L8.55950865,0 Z M31.5595086,0 L34.2045423,5.06167777 L40.1190173,5.87335555 L35.839263,9.81332223 L36.8495759,15.3766445 L31.5595086,12.75 L26.2694414,15.3766445 L27.2797543,9.81332223 L23,5.87335555 L28.914475,5.06167777 L31.5595086,0 Z M54.5595086,0 L57.2045423,5.06167777 L63.1190173,5.87335555 L58.839263,9.81332223 L59.8495759,15.3766445 L54.5595086,12.75 L49.2694414,15.3766445 L50.2797543,9.81332223 L46,5.87335555 L51.914475,5.06167777 L54.5595086,0 Z M77.5595086,0 L80.2045423,5.06167777 L86.1190173,5.87335555 L81.839263,9.81332223 L82.8495759,15.3766445 L77.5595086,12.75 L72.2694414,15.3766445 L73.2797543,9.81332223 L69,5.87335555 L74.914475,5.06167777 L77.5595086,0 Z M100.559509,0 L103.204542,5.06167777 L109.119017,5.87335555 L104.839263,9.81332223 L105.849576,15.3766445 L100.559509,12.75 L95.2694414,15.3766445 L96.2797543,9.81332223 L92,5.87335555 L97.914475,5.06167777 L100.559509,0 Z" id="Combined-Shape"></path>
        </g>
    </g>
</svg>